<svg width="50" height="50" viewBox="0 0 50 50" fill="none" xmlns="http://www.w3.org/2000/svg">
<g clip-path="url(#clip0_503_585)">
<path d="M25 48.7288C38.1051 48.7288 48.7289 38.1051 48.7289 25.0001C48.7289 11.895 38.1051 1.27124 25 1.27124C11.895 1.27124 1.27124 11.895 1.27124 25.0001C1.27124 38.1051 11.895 48.7288 25 48.7288Z" fill="white"/>
<path d="M25 0C11.1929 0 0 11.1929 0 25C0 38.8072 11.1929 50 25 50C38.8072 50 50 38.8072 50 25C50 11.1929 38.8072 0 25 0ZM25 2.54238C37.403 2.54238 47.4577 12.597 47.4577 25C47.4577 37.403 37.403 47.4577 25 47.4577C12.597 47.4577 2.54238 37.403 2.54238 25C2.54238 12.597 12.597 2.54238 25 2.54238Z" fill="#4000BF"/>
<path d="M25.2823 7.20337C35.1112 7.20337 43.079 15.1712 43.079 25C43.079 34.8287 35.1112 42.7965 25.2823 42.7965C15.4535 42.7965 7.48572 34.8287 7.48572 25C7.48572 22.5979 7.96162 20.307 8.8243 18.2162C10.0839 19.9315 12.1152 21.0451 14.4066 21.0451C18.229 21.0451 21.3275 17.9465 21.3275 14.1243C21.3275 11.8329 20.214 9.80156 18.4985 8.54196C20.5893 7.67928 22.8803 7.20337 25.2823 7.20337Z" fill="url(#paint0_linear_503_585)"/>
</g>
<defs>
<linearGradient id="paint0_linear_503_585" x1="25.2823" y1="42.7965" x2="25.2823" y2="7.20337" gradientUnits="userSpaceOnUse">
<stop stop-color="#7400E1"/>
<stop offset="1" stop-color="#4000BF"/>
</linearGradient>
<clipPath id="clip0_503_585">
<rect width="50" height="50" fill="white"/>
</clipPath>
</defs>
</svg>
